<?xml version="1.0" encoding="utf-8"?>
<!-- Generator: Adobe Illustrator 21.0.0, SVG Export Plug-In . SVG Version: 6.00 Build 0)  -->
<svg version="1.1" id="Capa_1" xmlns="http://www.w3.org/2000/svg" xmlns:xlink="http://www.w3.org/1999/xlink" x="0px" y="0px"
	 viewBox="0 0 1366 768" style="enable-background:new 0 0 1366 768;" xml:space="preserve">
<style type="text/css">
	.st0{fill:#FFFFFF;}
	.st1{fill:#CCCCCC;}
	.st2{fill:none;}
	.st3{font-family:'MyriadPro-Regular';}
	.st4{font-size:60px;}
	.st5{font-size:12px;}
	.st6{font-size:72px;}
</style>
<g>
	<polygon class="st0" points="480.5,350.6 413.5,234.5 480.5,118.4 614.5,118.4 681.5,234.5 614.5,350.6 	"/>
	<path class="st1" d="M611.6,123.4l64.1,111.1l-64.1,111.1l-128.3,0l-64.1-111.1l64.1-111.1L611.6,123.4 M617.4,113.4l-139.8,0
		l-69.9,121.1l69.9,121.1l139.8,0l69.9-121.1L617.4,113.4L617.4,113.4z"/>
</g>
<g>
	<polygon class="st0" points="201.4,359.5 271.7,244.1 406.8,240.9 471.4,352.9 401.1,468.3 266.1,471.4 	"/>
	<path class="st1" d="M403.9,246l61.6,106.8l-67.3,110.6l-129.4,3l-61.6-106.8L274.5,249L403.9,246 M409.6,235.9l-140.8,3.3
		l-73.2,120.3l67.6,117l140.8-3.3l73.2-120.3L409.6,235.9L409.6,235.9z"/>
</g>
<g>
	<polygon class="st0" points="685.2,472 621.2,353.9 691.5,239.4 825.8,243 889.8,361.1 819.5,475.6 	"/>
	<path class="st1" d="M694.2,244.4l128.6,3.4l61.3,113.1l-67.3,109.6l-128.6-3.5l-61.3-113.1L694.2,244.4 M688.7,234.3l-73.3,119.5
		L682.2,477l140.1,3.8l73.3-119.5L828.8,238L688.7,234.3L688.7,234.3z"/>
</g>
<rect x="305.5" y="328" class="st2" width="63.5" height="58"/>
<text transform="matrix(1 0 0 1 305.5 370.5996)"><tspan x="0" y="0" class="st3 st4">M</tspan><tspan x="48.2" y="0" class="st3 st5"> </tspan></text>
<rect x="529" y="188" class="st2" width="65" height="77"/>
<text transform="matrix(1 0 0 1 529 239.1191)" class="st3 st6">A</text>
<rect x="756" y="334" class="st2" width="108.8" height="99"/>
<text transform="matrix(1 0 0 1 756 376.5996)" class="st3 st4">J</text>
</svg>
